<?xml version="1.0" standalone="no"?>
<!DOCTYPE svg PUBLIC "-//W3C//DTD SVG 20010904//EN"
 "http://www.w3.org/TR/2001/REC-SVG-20010904/DTD/svg10.dtd">
<svg version="1.0" xmlns="http://www.w3.org/2000/svg"
 width="1222.000000pt" height="1280.000000pt" viewBox="0 0 1222.000000 1280.000000"
 preserveAspectRatio="xMidYMid meet">
<g transform="translate(0.000000,1280.000000) scale(0.100000,-0.100000)"
fill="#000000" stroke="none">
<path d="M7258 12774 c-60 -19 -84 -33 -112 -64 -42 -47 -52 -83 -61 -215 -18
-292 -99 -953 -151 -1240 -83 -462 -245 -907 -431 -1190 -129 -195 -260 -329
-563 -572 -336 -269 -509 -462 -616 -688 -23 -49 -110 -250 -193 -445 -322
-763 -487 -1096 -758 -1532 -321 -518 -603 -805 -893 -911 -45 -16 -85 -21
-224 -23 -93 -2 -173 -7 -177 -11 -12 -12 -12 -5224 0 -5236 13 -13 111 -32
1176 -227 416 -76 904 -168 1312 -246 101 -19 242 -39 315 -44 73 -6 207 -17
298 -25 486 -43 917 -65 1910 -96 603 -19 1220 -1 1610 46 340 42 563 116 775
257 257 171 581 492 673 667 63 119 64 127 66 466 1 290 2 313 22 361 39 95
98 168 305 374 271 270 347 373 385 520 34 135 12 239 -126 580 -101 248 -111
284 -117 392 -5 92 -4 100 24 160 30 64 114 173 288 373 122 140 190 241 211
313 34 115 -1 211 -202 544 -166 276 -196 341 -202 439 -3 45 0 91 8 113 15
45 98 171 229 346 55 74 118 169 138 210 36 71 38 80 38 170 -1 85 -5 108 -42
216 -23 67 -64 166 -91 220 -95 188 -270 431 -421 584 -225 228 -407 284
-1041 325 -534 34 -1535 45 -2214 25 -510 -15 -466 -17 -492 13 -50 58 -57
303 -15 492 66 296 171 545 544 1292 209 416 250 524 327 847 60 254 64 294
65 636 0 358 -8 427 -77 679 -45 165 -100 311 -154 408 -145 258 -417 498
-690 610 -73 30 -143 49 -351 98 -94 23 -214 18 -305 -11z"/>
<path d="M435 6135 c-94 -18 -145 -37 -210 -81 -94 -62 -179 -178 -200 -271
-3 -18 -11 -35 -16 -38 -12 -8 -12 -5078 0 -5090 5 -6 16 -36 25 -67 22 -78
94 -171 182 -233 134 -96 60 -90 1031 -93 741 -2 861 -1 919 13 177 41 313
167 371 344 9 28 16 99 19 181 8 265 11 4717 3 4823 -9 126 -34 211 -88 294
-67 104 -168 177 -292 210 -58 15 -144 17 -869 19 -639 2 -819 0 -875 -11z"/>
</g>
</svg>
